<svg xmlns="http://www.w3.org/2000/svg" viewBox="0 0 56.82 27.19"><defs><style>.cls-1{fill:#3e3a39;}.cls-2{fill:#f7f7f7;}</style></defs><g id="レイヤー_2" data-name="レイヤー 2"><g id="レイヤー_1-2" data-name="レイヤー 1"><rect class="cls-1" width="27.19" height="27.19" rx="0.92"/><path class="cls-2" d="M22.93,14.52H14.4V13h8.53a4.07,4.07,0,1,0,0-8.13H11.36a5.43,5.43,0,0,0-.45-1.5H22.13A5.25,5.25,0,0,0,25.86,1.8a.81.81,0,0,0,0-1.15.8.8,0,0,0-1.14,0,3.64,3.64,0,0,1-2.59,1.07H9.71A5.29,5.29,0,0,0,6.14.33.81.81,0,0,0,6.14,2,3.68,3.68,0,0,1,9.72,4.84H4.26a4.07,4.07,0,1,0,0,8.13h8.52v1.55H4.26a4.07,4.07,0,1,0,0,8.13h6A.75.75,0,0,0,11,21.9a.76.76,0,0,0-.76-.76h-6a2.56,2.56,0,1,1,0-5.11H22.93a2.56,2.56,0,0,1,0,5.11h-6a.76.76,0,0,0-.75.76.75.75,0,0,0,.75.75h6a4.07,4.07,0,1,0,0-8.13Zm-12-8.17h12a2.56,2.56,0,0,1,0,5.11H4.26a2.56,2.56,0,1,1,0-5.11h6.67"/><path class="cls-2" d="M24.3,8.9a.64.64,0,0,0-.64-.64H3.53a.65.65,0,1,0,0,1.29H23.66A.65.65,0,0,0,24.3,8.9Z"/><path class="cls-2" d="M23.66,19.24a.65.65,0,0,0,0-1.3H3.53a.65.65,0,1,0,0,1.3h9.25V26a.81.81,0,1,0,1.62,0V19.24Z"/><rect class="cls-1" x="29.64" width="27.19" height="27.19" rx="0.92"/><path class="cls-2" d="M55,11a.81.81,0,0,0,0-1.62h-4.9V7.94a.81.81,0,0,0-1.62,0V9.42H41.32V7.94a.81.81,0,0,0-1.62,0V9.42H34.84a.81.81,0,1,0,0,1.62H39.7v2.18H34.84a.81.81,0,0,0,0,1.62H55a.81.81,0,1,0,0-1.62h-4.9V11Zm-6.52,2.18H41.32V11h7.13Z"/><path class="cls-2" d="M54.09,6.4a2.38,2.38,0,0,0,2.4-2.34V1.14a.81.81,0,0,0-1.62,0v.58H30.78a.81.81,0,0,0,0,1.62H54.87v.72a.75.75,0,0,1-.79.72l-17.52.08a5.29,5.29,0,0,0-5.28,5.28V22.89a3.64,3.64,0,0,1-1.07,2.59.81.81,0,0,0,.57,1.38.78.78,0,0,0,.57-.24,5.22,5.22,0,0,0,1.55-3.73V10.14a3.66,3.66,0,0,1,3.66-3.66Z"/><path class="cls-2" d="M54.2,16.07H49.26a.81.81,0,0,0-.81.81v2.93a.76.76,0,0,1-.78.72H42.53V16.88a.81.81,0,0,0-.81-.81H38.94A4.92,4.92,0,0,0,34,21v4.65a.81.81,0,0,0,1.62,0V21a3.28,3.28,0,0,1,3.23-3.28h2v5.77a2.38,2.38,0,0,0,2.4,2.34H52.7a.81.81,0,0,0,0-1.62H43.31a.75.75,0,0,1-.78-.72V22.15h5.14a2.38,2.38,0,0,0,2.4-2.34V17.69H54.2a.75.75,0,0,1,.72.78v7.15a.82.82,0,0,0,1.63,0V18.47A2.37,2.37,0,0,0,54.2,16.07Z"/></g></g></svg>